<svg width="49" height="44" viewBox="0 0 49 44" fill="none" xmlns="http://www.w3.org/2000/svg">
<path d="M0 8C0 3.58172 3.58172 0 8 0H41C45.4183 0 49 3.58172 49 8V36C49 40.4183 45.4183 44 41 44H8C3.58172 44 0 40.4183 0 36V8Z" fill="#CEAB76" fill-opacity="0.1"/>
<path d="M0 8C0 3.58172 3.58172 0 8 0H41C45.4183 0 49 3.58172 49 8V36C49 40.4183 45.4183 44 41 44H8C3.58172 44 0 40.4183 0 36V8Z" stroke="#E5E7EB"/>
<path d="M12 10.5H37V34.5H12V10.5Z" stroke="#E5E7EB"/>
<g clip-path="url(#clip0_26_200)">
<path d="M17.625 12C18.4538 12 19.2487 12.3292 19.8347 12.9153C20.4208 13.5013 20.75 14.2962 20.75 15.125C20.75 15.9538 20.4208 16.7487 19.8347 17.3347C19.2487 17.9208 18.4538 18.25 17.625 18.25C16.7962 18.25 16.0013 17.9208 15.4153 17.3347C14.8292 16.7487 14.5 15.9538 14.5 15.125C14.5 14.2962 14.8292 13.5013 15.4153 12.9153C16.0013 12.3292 16.7962 12 17.625 12ZM32 12C32.8288 12 33.6237 12.3292 34.2097 12.9153C34.7958 13.5013 35.125 14.2962 35.125 15.125C35.125 15.9538 34.7958 16.7487 34.2097 17.3347C33.6237 17.9208 32.8288 18.25 32 18.25C31.1712 18.25 30.3763 17.9208 29.7903 17.3347C29.2042 16.7487 28.875 15.9538 28.875 15.125C28.875 14.2962 29.2042 13.5013 29.7903 12.9153C30.3763 12.3292 31.1712 12 32 12ZM12 23.668C12 21.3672 13.8672 19.5 16.168 19.5H17.8359C18.457 19.5 19.0469 19.6367 19.5781 19.8789C19.5273 20.1602 19.5039 20.4531 19.5039 20.75C19.5039 22.2422 20.1602 23.582 21.1953 24.5C21.1875 24.5 21.1797 24.5 21.168 24.5H12.832C12.375 24.5 12 24.125 12 23.668ZM27.832 24.5C27.8242 24.5 27.8164 24.5 27.8047 24.5C28.8438 23.582 29.4961 22.2422 29.4961 20.75C29.4961 20.4531 29.4688 20.1641 29.4219 19.8789C29.9531 19.6328 30.543 19.5 31.1641 19.5H32.832C35.1328 19.5 37 21.3672 37 23.668C37 24.1289 36.625 24.5 36.168 24.5H27.832ZM20.75 20.75C20.75 19.7554 21.1451 18.8016 21.8483 18.0983C22.5516 17.3951 23.5054 17 24.5 17C25.4946 17 26.4484 17.3951 27.1517 18.0983C27.8549 18.8016 28.25 19.7554 28.25 20.75C28.25 21.7446 27.8549 22.6984 27.1517 23.4017C26.4484 24.1049 25.4946 24.5 24.5 24.5C23.5054 24.5 22.5516 24.1049 21.8483 23.4017C21.1451 22.6984 20.75 21.7446 20.75 20.75ZM17 30.957C17 28.082 19.332 25.75 22.207 25.75H26.793C29.668 25.75 32 28.082 32 30.957C32 31.5312 31.5352 32 30.957 32H18.043C17.4688 32 17 31.5352 17 30.957Z" fill="#977342"/>
</g>
<defs>
<clipPath id="clip0_26_200">
<path d="M12 12H37V32H12V12Z" fill="white"/>
</clipPath>
</defs>
</svg>
