<svg width="39" height="44" viewBox="0 0 39 44" fill="none" xmlns="http://www.w3.org/2000/svg">
<path d="M0 8C0 3.58172 3.58172 0 8 0H31C35.4183 0 39 3.58172 39 8V36C39 40.4183 35.4183 44 31 44H8C3.58172 44 0 40.4183 0 36V8Z" fill="#CEAB76" fill-opacity="0.1"/>
<path d="M0 8C0 3.58172 3.58172 0 8 0H31C35.4183 0 39 3.58172 39 8V36C39 40.4183 35.4183 44 31 44H8C3.58172 44 0 40.4183 0 36V8Z" stroke="#E5E7EB"/>
<path d="M12 10.5H27V34.5H12V10.5Z" stroke="#E5E7EB"/>
<g clip-path="url(#clip0_26_202)">
<path d="M14.5 12C13.1211 12 12 13.1211 12 14.5V29.5C12 30.8789 13.1211 32 14.5 32H24.5C25.8789 32 27 30.8789 27 29.5V18.25H22C21.3086 18.25 20.75 17.6914 20.75 17V12H14.5ZM22 12V17H27L22 12ZM16.375 22H22.625C22.9688 22 23.25 22.2812 23.25 22.625C23.25 22.9688 22.9688 23.25 22.625 23.25H16.375C16.0312 23.25 15.75 22.9688 15.75 22.625C15.75 22.2812 16.0312 22 16.375 22ZM16.375 24.5H22.625C22.9688 24.5 23.25 24.7812 23.25 25.125C23.25 25.4688 22.9688 25.75 22.625 25.75H16.375C16.0312 25.75 15.75 25.4688 15.75 25.125C15.75 24.7812 16.0312 24.5 16.375 24.5ZM16.375 27H22.625C22.9688 27 23.25 27.2812 23.25 27.625C23.25 27.9688 22.9688 28.25 22.625 28.25H16.375C16.0312 28.25 15.75 27.9688 15.75 27.625C15.75 27.2812 16.0312 27 16.375 27Z" fill="#977342"/>
</g>
<defs>
<clipPath id="clip0_26_202">
<path d="M12 12H27V32H12V12Z" fill="white"/>
</clipPath>
</defs>
</svg>
