<svg width="26" height="26" viewBox="0 0 26 26" fill="none" xmlns="http://www.w3.org/2000/svg">
<path fill-rule="evenodd" clip-rule="evenodd" d="M6.799 9.37299C6.98523 9.19382 7.23499 9.09591 7.49338 9.10078C7.75177 9.10566 7.99765 9.21292 8.177 9.39899L13 14.5184L17.823 9.39899C17.9107 9.30235 18.0168 9.22428 18.1352 9.16942C18.2536 9.11456 18.3818 9.08402 18.5122 9.07961C18.6426 9.07521 18.7726 9.09702 18.8944 9.14377C19.0163 9.19051 19.1275 9.26123 19.2215 9.35174C19.3155 9.44225 19.3903 9.55071 19.4416 9.67068C19.4929 9.79066 19.5196 9.91971 19.5202 10.0502C19.5207 10.1807 19.495 10.3099 19.4446 10.4303C19.3943 10.5507 19.3203 10.6597 19.227 10.751L13.702 16.601C13.611 16.6954 13.502 16.7704 13.3814 16.8217C13.2608 16.8729 13.1311 16.8994 13 16.8994C12.8689 16.8994 12.7392 16.8729 12.6186 16.8217C12.498 16.7704 12.3889 16.6954 12.298 16.601L6.773 10.751C6.59382 10.5648 6.49591 10.315 6.50078 10.0566C6.50566 9.79822 6.61292 9.55234 6.799 9.37299Z" fill="black"/>
</svg>
