<svg width="42" height="36" viewBox="0 0 42 36" fill="none" xmlns="http://www.w3.org/2000/svg">
<g clip-path="url(#clip0_78_903)">
<path d="M0.75 9C0.75 6.51797 2.76797 4.5 5.25 4.5H23.25C25.732 4.5 27.75 6.51797 27.75 9V27C27.75 29.482 25.732 31.5 23.25 31.5H5.25C2.76797 31.5 0.75 29.482 0.75 27V9ZM40.0617 7.01719C40.793 7.41094 41.25 8.17031 41.25 9V27C41.25 27.8297 40.793 28.5891 40.0617 28.9828C39.3305 29.3766 38.4445 29.3344 37.7484 28.8703L30.9984 24.3703L30 23.7023V22.5V13.5V12.2977L30.9984 11.6297L37.7484 7.12969C38.4375 6.67266 39.3234 6.62344 40.0617 7.01719Z" fill="#CEAB76"/>
</g>
<defs>
<clipPath id="clip0_78_903">
<path d="M0.75 0H41.25V36H0.75V0Z" fill="white"/>
</clipPath>
</defs>
</svg>
