<svg width="46" height="36" viewBox="0 0 46 36" fill="none" xmlns="http://www.w3.org/2000/svg">
<g clip-path="url(#clip0_78_882)">
<path d="M10.625 33.75C5.03516 33.75 0.5 29.2148 0.5 23.625C0.5 19.2094 3.32656 15.4547 7.26406 14.0695C7.25703 13.8797 7.25 13.6898 7.25 13.5C7.25 7.28437 12.2844 2.25 18.5 2.25C22.6695 2.25 26.3047 4.51406 28.2523 7.88906C29.3211 7.17188 30.6148 6.75 32 6.75C35.7266 6.75 38.75 9.77344 38.75 13.5C38.75 14.3578 38.5883 15.1734 38.3 15.9328C42.4062 16.7625 45.5 20.3977 45.5 24.75C45.5 29.7211 41.4711 33.75 36.5 33.75H10.625ZM16.1797 18.4922C15.5188 19.1531 15.5188 20.2219 16.1797 20.8758C16.8406 21.5297 17.9094 21.5367 18.5633 20.8758L21.3055 18.1336V27.5625C21.3055 28.4977 22.0578 29.25 22.993 29.25C23.9281 29.25 24.6805 28.4977 24.6805 27.5625V18.1336L27.4227 20.8758C28.0836 21.5367 29.1523 21.5367 29.8062 20.8758C30.4602 20.2148 30.4672 19.1461 29.8062 18.4922L24.1812 12.8672C23.5203 12.2063 22.4516 12.2063 21.7977 12.8672L16.1727 18.4922H16.1797Z" fill="#CEAB76"/>
</g>
<defs>
<clipPath id="clip0_78_882">
<path d="M0.5 0H45.5V36H0.5V0Z" fill="white"/>
</clipPath>
</defs>
</svg>
