<svg width="42" height="36" viewBox="0 0 42 36" fill="none" xmlns="http://www.w3.org/2000/svg">
<g clip-path="url(#clip0_78_893)">
<path d="M12 2.25C9.51797 2.25 7.5 4.26797 7.5 6.75V22.5C7.5 24.982 9.51797 27 12 27H36.75C39.232 27 41.25 24.982 41.25 22.5V6.75C41.25 4.26797 39.232 2.25 36.75 2.25H12ZM28.5938 9.75234L35.3438 19.8773C35.6883 20.3977 35.7234 21.0586 35.4281 21.607C35.1328 22.1555 34.5633 22.5 33.9375 22.5H23.8125H20.4375H14.8125C14.1656 22.5 13.575 22.1273 13.2937 21.5437C13.0125 20.9602 13.0898 20.2641 13.4977 19.7578L17.9977 14.1328C18.3211 13.732 18.7992 13.5 19.3125 13.5C19.8258 13.5 20.3109 13.732 20.6273 14.1328L21.8438 15.6516L25.7812 9.74531C26.0977 9.28125 26.625 9 27.1875 9C27.75 9 28.2773 9.28125 28.5938 9.75234ZM14.25 9C14.25 8.40326 14.4871 7.83097 14.909 7.40901C15.331 6.98705 15.9033 6.75 16.5 6.75C17.0967 6.75 17.669 6.98705 18.091 7.40901C18.5129 7.83097 18.75 8.40326 18.75 9C18.75 9.59674 18.5129 10.169 18.091 10.591C17.669 11.0129 17.0967 11.25 16.5 11.25C15.9033 11.25 15.331 11.0129 14.909 10.591C14.4871 10.169 14.25 9.59674 14.25 9ZM4.125 8.4375C4.125 7.50234 3.37266 6.75 2.4375 6.75C1.50234 6.75 0.75 7.50234 0.75 8.4375V24.1875C0.75 29.468 5.03203 33.75 10.3125 33.75H32.8125C33.7477 33.75 34.5 32.9977 34.5 32.0625C34.5 31.1273 33.7477 30.375 32.8125 30.375H10.3125C6.89531 30.375 4.125 27.6047 4.125 24.1875V8.4375Z" fill="#CEAB76"/>
</g>
<defs>
<clipPath id="clip0_78_893">
<path d="M0.75 0H41.25V36H0.75V0Z" fill="white"/>
</clipPath>
</defs>
</svg>
