<svg width="44" height="44" viewBox="0 0 44 44" fill="none" xmlns="http://www.w3.org/2000/svg">
<path d="M0 8C0 3.58172 3.58172 0 8 0H36C40.4183 0 44 3.58172 44 8V36C44 40.4183 40.4183 44 36 44H8C3.58172 44 0 40.4183 0 36V8Z" fill="#CEAB76" fill-opacity="0.1"/>
<path d="M0 8C0 3.58172 3.58172 0 8 0H36C40.4183 0 44 3.58172 44 8V36C44 40.4183 40.4183 44 36 44H8C3.58172 44 0 40.4183 0 36V8Z" stroke="#E5E7EB"/>
<path d="M12 10.5H32V34.5H12V10.5Z" stroke="#E5E7EB"/>
<g clip-path="url(#clip0_26_204)">
<path d="M22 32C24.6522 32 27.1957 30.9464 29.0711 29.0711C30.9464 27.1957 32 24.6522 32 22C32 19.3478 30.9464 16.8043 29.0711 14.9289C27.1957 13.0536 24.6522 12 22 12C19.3478 12 16.8043 13.0536 14.9289 14.9289C13.0536 16.8043 12 19.3478 12 22C12 24.6522 13.0536 27.1957 14.9289 29.0711C16.8043 30.9464 19.3478 32 22 32ZM26.4141 20.1641L21.4141 25.1641C21.0469 25.5312 20.4531 25.5312 20.0898 25.1641L17.5898 22.6641C17.2227 22.2969 17.2227 21.7031 17.5898 21.3398C17.957 20.9766 18.5508 20.9727 18.9141 21.3398L20.75 23.1758L25.0859 18.8359C25.4531 18.4688 26.0469 18.4688 26.4102 18.8359C26.7734 19.2031 26.7773 19.7969 26.4102 20.1602L26.4141 20.1641Z" fill="#977342"/>
</g>
<defs>
<clipPath id="clip0_26_204">
<path d="M12 12H32V32H12V12Z" fill="white"/>
</clipPath>
</defs>
</svg>
