<svg width="44" height="44" viewBox="0 0 44 44" fill="none" xmlns="http://www.w3.org/2000/svg">
<path d="M0 8C0 3.58172 3.58172 0 8 0H36C40.4183 0 44 3.58172 44 8V36C44 40.4183 40.4183 44 36 44H8C3.58172 44 0 40.4183 0 36V8Z" fill="#CEAB76" fill-opacity="0.1"/>
<path d="M0 8C0 3.58172 3.58172 0 8 0H36C40.4183 0 44 3.58172 44 8V36C44 40.4183 40.4183 44 36 44H8C3.58172 44 0 40.4183 0 36V8Z" stroke="#E5E7EB"/>
<path d="M12 10.5H32V34.5H12V10.5Z" stroke="#E5E7EB"/>
<path d="M12 12H32V32H12V12Z" stroke="#E5E7EB"/>
<path d="M19.1875 13.875H24.8125C24.9844 13.875 25.125 14.0156 25.125 14.1875V15.75H18.875V14.1875C18.875 14.0156 19.0156 13.875 19.1875 13.875ZM17 14.1875V15.75H14.5C13.1211 15.75 12 16.8711 12 18.25V22H19.5H24.5H32V18.25C32 16.8711 30.8789 15.75 29.5 15.75H27V14.1875C27 12.9805 26.0195 12 24.8125 12H19.1875C17.9805 12 17 12.9805 17 14.1875ZM32 23.25H24.5V24.5C24.5 25.1914 23.9414 25.75 23.25 25.75H20.75C20.0586 25.75 19.5 25.1914 19.5 24.5V23.25H12V28.25C12 29.6289 13.1211 30.75 14.5 30.75H29.5C30.8789 30.75 32 29.6289 32 28.25V23.25Z" fill="#977342"/>
</svg>
